<svg width="18" height="16" viewBox="0 0 18 16" fill="none" xmlns="http://www.w3.org/2000/svg">
<path d="M3.77755 1.77857C3.77729 2.25004 3.57806 2.7021 3.22367 3.03532C2.86928 3.36853 2.38876 3.55559 1.88783 3.55536C1.38689 3.55512 0.906577 3.36761 0.552541 3.03406C0.198504 2.70051 -0.00025023 2.24826 2.36438e-07 1.77679C0.000250703 1.30532 0.199486 0.853255 0.553877 0.520042C0.908267 0.186829 1.38878 -0.000235512 1.88972 2.22531e-07C2.39065 0.000235957 2.87097 0.187753 3.225 0.521299C3.57904 0.854845 3.7778 1.3071 3.77755 1.77857ZM3.83421 4.87173H0.0566634V16H3.83421V4.87173ZM9.80273 4.87173H6.04407V16H9.76495V10.1603C9.76495 6.90717 14.2697 6.60497 14.2697 10.1603V16H18V8.9515C18 3.46736 11.3326 3.6718 9.76495 6.36498L9.80273 4.87173Z" fill="white"/>
</svg>
