<svg width="187" height="53" viewBox="0 0 187 53" fill="none" xmlns="http://www.w3.org/2000/svg">
<path d="M186.601 10.8431L177.313 23.8388H187V27.905H171.453V25.0347L180.781 12.039H171.852V7.9729H186.601V10.8431Z" fill="#1E1E1E"/>
<path d="M160.378 22.4436L165.481 7.9729H170.065L162.411 28.5428C160.498 33.6985 157.255 36.1435 152.684 35.8778V31.8515C154.013 31.9312 155.089 31.6522 155.913 31.0144C156.737 30.3765 157.428 29.3534 157.986 27.9448L158.186 27.5462L149.734 7.9729H154.438L160.378 22.4436Z" fill="#1E1E1E"/>
<path d="M140.351 7.45447C142.664 7.45447 144.511 8.1986 145.893 9.68686C147.301 11.1485 148.005 13.1417 148.005 15.6665V27.9048H143.7V16.105C143.7 14.6167 143.301 13.4739 142.504 12.6767C141.707 11.8794 140.617 11.4807 139.235 11.4807C137.667 11.4807 136.431 11.9724 135.528 12.9557C134.624 13.9125 134.173 15.3343 134.173 17.2212V27.9048H129.867V7.9727H134.173V10.524C135.501 8.47765 137.561 7.45447 140.351 7.45447Z" fill="#1E1E1E"/>
<path d="M120.736 10.8031V7.9727H125.042V27.9048H120.736V25.0345C119.115 27.2935 116.79 28.423 113.76 28.423C111.023 28.423 108.684 27.4131 106.744 25.3933C104.804 23.3735 103.834 20.8887 103.834 17.9387C103.834 14.9888 104.804 12.5039 106.744 10.4841C108.684 8.46436 111.023 7.45447 113.76 7.45447C116.79 7.45447 119.115 8.57066 120.736 10.8031ZM109.933 22.5231C111.129 23.719 112.631 24.317 114.438 24.317C116.245 24.317 117.747 23.719 118.942 22.5231C120.138 21.3006 120.736 19.7725 120.736 17.9387C120.736 16.105 120.138 14.5901 118.942 13.3942C117.747 12.1717 116.245 11.5605 114.438 11.5605C112.631 11.5605 111.129 12.1717 109.933 13.3942C108.737 14.5901 108.139 16.105 108.139 17.9387C108.139 19.7459 108.737 21.274 109.933 22.5231Z" fill="#1E1E1E"/>
<path d="M95.9079 10.9226V7.9727H100.133V26.9879C100.133 30.0176 99.1369 32.343 97.1437 33.9641C95.1771 35.5852 92.7586 36.3958 89.8884 36.3958C85.2908 36.3958 82.1415 34.788 80.4406 31.5723L84.148 29.4196C85.1844 31.466 87.1245 32.4891 89.9681 32.4891C91.8285 32.4891 93.2769 31.9975 94.3133 31.0142C95.3764 30.0574 95.9079 28.7153 95.9079 26.9879V24.5562C94.2868 26.8683 91.9746 28.0244 88.9715 28.0244C86.1811 28.0244 83.8025 27.0277 81.8359 25.0345C79.8958 23.0148 78.9258 20.583 78.9258 17.7394C78.9258 14.8692 79.8958 12.4508 81.8359 10.4841C83.7759 8.46436 86.1545 7.45447 88.9715 7.45447C91.9746 7.45447 94.2868 8.61053 95.9079 10.9226ZM85.025 22.2042C86.2475 23.4001 87.7623 23.9981 89.5695 23.9981C91.3767 23.9981 92.8782 23.4001 94.0741 22.2042C95.2966 21.0083 95.9079 19.52 95.9079 17.7394C95.9079 15.9588 95.2966 14.4706 94.0741 13.2746C92.8782 12.0787 91.3767 11.4807 89.5695 11.4807C87.7623 11.4807 86.2475 12.0787 85.025 13.2746C83.8291 14.4706 83.2311 15.9588 83.2311 17.7394C83.2311 19.52 83.8291 21.0083 85.025 22.2042Z" fill="#1E1E1E"/>
<path d="M76.4077 19.7725H60.5418C60.8607 21.2607 61.5782 22.4168 62.6944 23.2407C63.8372 24.0645 65.2457 24.4764 66.92 24.4764C69.179 24.4764 70.8931 23.6526 72.0625 22.0049L75.6104 24.0778C73.6703 26.9746 70.7603 28.423 66.8801 28.423C63.6644 28.423 61.0467 27.4397 59.0269 25.4731C57.0337 23.4798 56.0371 20.9684 56.0371 17.9387C56.0371 14.9888 57.0204 12.5039 58.9871 10.4841C60.9271 8.46436 63.4518 7.45447 66.5612 7.45447C69.458 7.45447 71.8499 8.47765 73.7368 10.524C75.6237 12.5704 76.5671 15.0552 76.5671 17.9786C76.5671 18.5101 76.514 19.1081 76.4077 19.7725ZM60.5019 16.2644H72.2219C71.9296 14.6965 71.2652 13.4872 70.2287 12.6368C69.2188 11.7864 67.9831 11.3612 66.5214 11.3612C64.9268 11.3612 63.598 11.7997 62.535 12.6767C61.4719 13.5537 60.7942 14.7496 60.5019 16.2644Z" fill="#1E1E1E"/>
<path d="M46.5091 21.726L50.4158 7.9729H54.9603L48.7016 27.905H44.476L40.3302 14.4708L36.1444 27.905H31.9188L25.6602 7.9729H30.2047L34.0715 21.726L38.2572 7.9729H42.3632L46.5091 21.726Z" fill="#1E1E1E"/>
<path d="M25.7124 27.9049H20.7692L18.8159 22.284H6.93636L4.98302 27.9049H0L10.1255 0H15.6267L25.7124 27.9049ZM12.8761 5.38166L8.45119 17.9787H17.301L12.8761 5.38166Z" fill="#1E1E1E"/>
<path d="M7.00356 49.7635H6.01652L9.46538 41.9252H10.2086L13.6574 49.7635H12.682L11.8924 47.9636H7.7932L7.00356 49.7635ZM11.5091 47.0927L9.84859 43.2723L8.17641 47.0927H11.5091ZM19.1734 49.7635H17.5128V41.9252H19.1734V45.0373H22.7616V41.9252H24.4105V49.7635H22.7616V46.5702H19.1734V49.7635ZM26.9343 50.019L27.0388 49.7287L25.0647 44.538H26.6208L27.7588 47.7546L28.9432 44.538H30.4993L28.1884 50.5184C27.9407 51.1609 27.6117 51.6293 27.2014 51.9234C26.7911 52.2254 26.2685 52.3763 25.6337 52.3763H25.4712V50.9364H25.6453C26.2879 50.9364 26.7175 50.6306 26.9343 50.019ZM31.0157 49.7635V41.3446H32.5137V44.8864C32.9317 44.5612 33.4117 44.3987 33.9536 44.3987C34.6503 44.3987 35.2387 44.6619 35.7187 45.1883C36.1987 45.7147 36.4386 46.3689 36.4386 47.1508C36.4386 47.9404 36.2025 48.5946 35.7303 49.1133C35.2581 49.6319 34.6658 49.8913 33.9536 49.8913C33.4117 49.8913 32.9317 49.7287 32.5137 49.4036V49.7635H31.0157ZM33.6981 45.885C33.3807 45.885 33.1059 46.0089 32.8737 46.2566C32.6491 46.4966 32.5369 46.7908 32.5369 47.1392C32.5369 47.4953 32.6491 47.7972 32.8737 48.0449C33.0982 48.2849 33.373 48.4049 33.6981 48.4049C34.0233 48.4049 34.2981 48.2849 34.5226 48.0449C34.7471 47.7972 34.8594 47.4953 34.8594 47.1392C34.8594 46.7908 34.7471 46.4966 34.5226 46.2566C34.2981 46.0089 34.0233 45.885 33.6981 45.885ZM38.6603 44.538V45.0838C39.0009 44.627 39.477 44.3987 40.0886 44.3987C40.1815 44.3987 40.2396 44.4025 40.2628 44.4103V46.0128C40.108 45.9199 39.9261 45.8734 39.717 45.8734C39.4151 45.8734 39.1635 45.9741 38.9622 46.1753C38.761 46.3766 38.6603 46.6321 38.6603 46.9418V49.7635H37.1507V44.538H38.6603ZM42.3459 49.7635H40.8363V44.538H42.3459V49.7635ZM41.5911 43.7832C41.3124 43.7832 41.0879 43.698 40.9175 43.5277C40.7472 43.3574 40.6621 43.1329 40.6621 42.8542C40.6621 42.5833 40.7472 42.3626 40.9175 42.1923C41.0956 42.0143 41.3201 41.9252 41.5911 41.9252C41.8543 41.9252 42.0749 42.0143 42.253 42.1923C42.431 42.3704 42.52 42.591 42.52 42.8542C42.52 43.1252 42.431 43.3497 42.253 43.5277C42.0827 43.698 41.862 43.7832 41.5911 43.7832ZM45.5286 44.3987C46.0705 44.3987 46.5504 44.5612 46.9685 44.8864V41.3446H48.4665V49.7635H46.9685V49.4036C46.5504 49.7287 46.0705 49.8913 45.5286 49.8913C44.8241 49.8913 44.2357 49.6319 43.7635 49.1133C43.2912 48.5946 43.0551 47.9404 43.0551 47.1508C43.0551 46.3611 43.2912 45.707 43.7635 45.1883C44.2435 44.6619 44.8318 44.3987 45.5286 44.3987ZM44.6228 47.1392C44.6228 47.4953 44.735 47.7972 44.9595 48.0449C45.1841 48.2849 45.4589 48.4049 45.784 48.4049C46.1092 48.4049 46.384 48.2849 46.6085 48.0449C46.833 47.7972 46.9453 47.4953 46.9453 47.1392C46.9453 46.7908 46.833 46.4966 46.6085 46.2566C46.384 46.0089 46.1092 45.885 45.784 45.885C45.4589 45.885 45.1841 46.0089 44.9595 46.2566C44.735 46.4966 44.6228 46.7908 44.6228 47.1392ZM52.0393 45.8502C52.0393 44.689 52.4379 43.7213 53.2353 42.9471C54.0327 42.173 55.0236 41.7859 56.2081 41.7859C57.0209 41.7859 57.7603 41.9833 58.426 42.3781C59.0996 42.7807 59.6028 43.3226 59.9356 44.0038L58.3331 44.5961C58.1319 44.2167 57.8415 43.9187 57.4622 43.7019C57.0829 43.4852 56.6648 43.3768 56.2081 43.3768C55.5113 43.3768 54.9307 43.6129 54.4662 44.0851C54.0017 44.5574 53.7695 45.1418 53.7695 45.8386C53.7695 46.5353 53.9901 47.1237 54.4314 47.6037C54.8804 48.0759 55.4378 48.312 56.1036 48.312C56.6068 48.312 57.0597 48.1765 57.4622 47.9056C57.8648 47.6269 58.1396 47.2592 58.2867 46.8024H55.9062V45.3857H60.1679C60.1679 45.4244 60.1718 45.498 60.1795 45.6063C60.195 45.707 60.2027 45.7728 60.2027 45.8037C60.1872 46.9882 59.7963 47.9636 59.0299 48.7301C58.248 49.5119 57.2803 49.9029 56.1268 49.9029C54.9656 49.9029 53.994 49.5158 53.2121 48.7417C52.4302 47.9598 52.0393 46.9959 52.0393 45.8502ZM62.554 44.538V45.0838C62.8947 44.627 63.3708 44.3987 63.9824 44.3987C64.0753 44.3987 64.1333 44.4025 64.1565 44.4103V46.0128C64.0017 45.9199 63.8198 45.8734 63.6108 45.8734C63.3088 45.8734 63.0572 45.9741 62.856 46.1753C62.6547 46.3766 62.554 46.6321 62.554 46.9418V49.7635H61.0444V44.538H62.554ZM65.255 49.1133C64.7286 48.5868 64.4654 47.9327 64.4654 47.1508C64.4654 46.3689 64.7286 45.7147 65.255 45.1883C65.7969 44.6619 66.4627 44.3987 67.2523 44.3987C68.0419 44.3987 68.7077 44.6619 69.2496 45.1883C69.7838 45.7147 70.0509 46.3689 70.0509 47.1508C70.0509 47.9327 69.7838 48.5868 69.2496 49.1133C68.7232 49.6319 68.0574 49.8913 67.2523 49.8913C66.4472 49.8913 65.7814 49.6319 65.255 49.1133ZM67.2523 48.4049C67.6007 48.4049 67.891 48.2849 68.1232 48.0449C68.3632 47.8049 68.4832 47.5069 68.4832 47.1508C68.4832 46.7947 68.3632 46.4966 68.1232 46.2566C67.891 46.0089 67.6007 45.885 67.2523 45.885C66.9117 45.885 66.6214 46.0089 66.3814 46.2566C66.1491 46.4966 66.033 46.7947 66.033 47.1508C66.033 47.5069 66.1491 47.8049 66.3814 48.0449C66.6214 48.2849 66.9117 48.4049 67.2523 48.4049ZM73.116 49.7635H71.7341L70.0852 44.538H71.6064L72.4193 47.4527L73.2437 44.538H74.6256L75.4501 47.4295L76.2513 44.538H77.7725L76.1236 49.7635H74.7417L73.9405 47.023L73.116 49.7635ZM77.9331 45.8502V44.538H78.6531V43.5277H80.1511V44.538H81.3704V45.8502H80.1511V47.8011C80.1511 47.9559 80.2053 48.0875 80.3136 48.1959C80.422 48.2965 80.5575 48.3468 80.7201 48.3468H81.3704V49.7635H80.4762C79.973 49.7635 79.5395 49.6048 79.1756 49.2874C78.8273 48.97 78.6531 48.5752 78.6531 48.103V45.8502H77.9331ZM82.0578 49.7635V41.3446H83.5674V45.0722C83.9235 44.6232 84.4112 44.3987 85.0305 44.3987C85.6034 44.3987 86.0834 44.5922 86.4704 44.9793C86.8653 45.3663 87.0627 45.8425 87.0627 46.4076V49.7635H85.5531V46.8024C85.5531 46.516 85.4563 46.2799 85.2628 46.0941C85.077 45.9005 84.8447 45.8037 84.566 45.8037C84.2796 45.8037 84.0396 45.9005 83.8461 46.0941C83.6603 46.2799 83.5674 46.516 83.5674 46.8024V49.7635H82.0578ZM88.1294 47.8127V46.4889H91.2995V47.8127H88.1294ZM92.5167 41.9252H98.3344V43.4581H94.1772V45.0489H97.7074V46.5702H94.1772V48.2423H98.3925V49.7635H92.5167V41.9252ZM99.1701 49.7635V44.538H100.68V45.0606C101.036 44.6193 101.512 44.3987 102.108 44.3987C102.665 44.3987 103.138 44.5922 103.525 44.9793C103.912 45.3663 104.105 45.8425 104.105 46.4076V49.7635H102.596V46.8024C102.596 46.516 102.503 46.2799 102.317 46.0941C102.139 45.9005 101.914 45.8037 101.643 45.8037C101.373 45.8037 101.144 45.9005 100.958 46.0941C100.773 46.2799 100.68 46.516 100.68 46.8024V49.7635H99.1701ZM107.298 44.3987C107.84 44.3987 108.32 44.5612 108.738 44.8864V44.538H110.236V49.7635H108.738V49.4036C108.32 49.7287 107.84 49.8913 107.298 49.8913C106.594 49.8913 106.006 49.6319 105.533 49.1133C105.061 48.5946 104.825 47.9404 104.825 47.1508C104.825 46.3611 105.061 45.707 105.533 45.1883C106.013 44.6619 106.602 44.3987 107.298 44.3987ZM106.393 47.1392C106.393 47.4953 106.505 47.7972 106.729 48.0449C106.954 48.2849 107.229 48.4049 107.554 48.4049C107.879 48.4049 108.154 48.2849 108.378 48.0449C108.603 47.7972 108.715 47.4953 108.715 47.1392C108.715 46.7908 108.603 46.4966 108.378 46.2566C108.154 46.0089 107.879 45.885 107.554 45.885C107.229 45.885 106.954 46.0089 106.729 46.2566C106.505 46.4966 106.393 46.7908 106.393 47.1392ZM111.123 49.7635V41.3446H112.621V44.8864C113.039 44.5612 113.519 44.3987 114.061 44.3987C114.757 44.3987 115.346 44.6619 115.826 45.1883C116.306 45.7147 116.546 46.3689 116.546 47.1508C116.546 47.9404 116.309 48.5946 115.837 49.1133C115.365 49.6319 114.773 49.8913 114.061 49.8913C113.519 49.8913 113.039 49.7287 112.621 49.4036V49.7635H111.123ZM113.805 45.885C113.488 45.885 113.213 46.0089 112.981 46.2566C112.756 46.4966 112.644 46.7908 112.644 47.1392C112.644 47.4953 112.756 47.7972 112.981 48.0449C113.205 48.2849 113.48 48.4049 113.805 48.4049C114.13 48.4049 114.405 48.2849 114.63 48.0449C114.854 47.7972 114.966 47.4953 114.966 47.1392C114.966 46.7908 114.854 46.4966 114.63 46.2566C114.405 46.0089 114.13 45.885 113.805 45.885ZM118.767 49.7635H117.258V41.3446H118.767V49.7635ZM121.149 49.7635H119.639V44.538H121.149V49.7635ZM120.394 43.7832C120.115 43.7832 119.891 43.698 119.72 43.5277C119.55 43.3574 119.465 43.1329 119.465 42.8542C119.465 42.5833 119.55 42.3626 119.72 42.1923C119.898 42.0143 120.123 41.9252 120.394 41.9252C120.657 41.9252 120.878 42.0143 121.056 42.1923C121.234 42.3704 121.323 42.591 121.323 42.8542C121.323 43.1252 121.234 43.3497 121.056 43.5277C120.885 43.698 120.665 43.7832 120.394 43.7832ZM122.02 49.7635V44.538H123.53V45.0606C123.886 44.6193 124.362 44.3987 124.958 44.3987C125.516 44.3987 125.988 44.5922 126.375 44.9793C126.762 45.3663 126.956 45.8425 126.956 46.4076V49.7635H125.446V46.8024C125.446 46.516 125.353 46.2799 125.167 46.0941C124.989 45.9005 124.765 45.8037 124.494 45.8037C124.223 45.8037 123.995 45.9005 123.809 46.0941C123.623 46.2799 123.53 46.516 123.53 46.8024V49.7635H122.02ZM130.149 49.8913C129.444 49.8913 128.856 49.6319 128.384 49.1133C127.912 48.5946 127.675 47.9404 127.675 47.1508C127.675 46.3611 127.912 45.707 128.384 45.1883C128.864 44.6619 129.452 44.3987 130.149 44.3987C130.691 44.3987 131.171 44.5612 131.589 44.8864V44.538H133.087V49.961C133.087 50.6964 132.831 51.3002 132.32 51.7725C131.825 52.2602 131.194 52.5041 130.428 52.5041C129.824 52.5041 129.282 52.3492 128.802 52.0396C128.322 51.7222 128.001 51.3273 127.838 50.8551L129.324 50.5067C129.41 50.6771 129.549 50.8164 129.742 50.9248C129.944 51.0332 130.16 51.0874 130.393 51.0874C130.733 51.0874 131.016 50.979 131.24 50.7622C131.473 50.5532 131.589 50.2938 131.589 49.9842V49.4036C131.171 49.7287 130.691 49.8913 130.149 49.8913ZM129.243 47.1624C129.243 47.5108 129.355 47.8049 129.58 48.0449C129.804 48.2849 130.079 48.4049 130.404 48.4049C130.729 48.4049 131.004 48.2849 131.229 48.0449C131.453 47.8049 131.566 47.5108 131.566 47.1624C131.566 46.8063 131.453 46.5044 131.229 46.2566C131.004 46.0089 130.729 45.885 130.404 45.885C130.079 45.885 129.804 46.0089 129.58 46.2566C129.355 46.5044 129.243 46.8063 129.243 47.1624ZM141.227 41.8091C141.986 41.8091 142.675 41.991 143.294 42.3549C143.913 42.711 144.397 43.2026 144.745 43.8296L143.84 44.1664C143.561 43.7174 143.193 43.3652 142.737 43.1097C142.28 42.8465 141.777 42.7149 141.227 42.7149C140.352 42.7149 139.621 43.0168 139.032 43.6206C138.444 44.209 138.15 44.9522 138.15 45.8502C138.15 46.7482 138.444 47.4914 139.032 48.0798C139.628 48.6759 140.36 48.9739 141.227 48.9739C141.777 48.9739 142.28 48.8462 142.737 48.5907C143.193 48.3275 143.561 47.9714 143.84 47.5224L144.745 47.8591C144.397 48.4862 143.913 48.9817 143.294 49.3455C142.675 49.7094 141.986 49.8913 141.227 49.8913C140.073 49.8913 139.11 49.5081 138.335 48.7417C137.569 47.9675 137.186 47.0037 137.186 45.8502C137.186 44.6967 137.569 43.7368 138.335 42.9703C139.11 42.1962 140.073 41.8091 141.227 41.8091ZM148.371 49.8797C147.589 49.8797 146.939 49.6203 146.42 49.1016C145.902 48.583 145.642 47.9327 145.642 47.1508C145.642 46.3689 145.902 45.7186 146.42 45.1999C146.939 44.6812 147.589 44.4219 148.371 44.4219C149.145 44.4219 149.792 44.6812 150.31 45.1999C150.837 45.7263 151.1 46.3766 151.1 47.1508C151.1 47.9249 150.837 48.5752 150.31 49.1016C149.792 49.6203 149.145 49.8797 148.371 49.8797ZM148.371 45.2812C147.845 45.2812 147.407 45.4592 147.059 45.8154C146.711 46.1715 146.536 46.6166 146.536 47.1508C146.536 47.6849 146.711 48.1301 147.059 48.4862C147.407 48.8423 147.845 49.0204 148.371 49.0204C148.898 49.0204 149.335 48.8423 149.683 48.4862C150.032 48.1301 150.206 47.6849 150.206 47.1508C150.206 46.6166 150.032 46.1715 149.683 45.8154C149.335 45.4592 148.898 45.2812 148.371 45.2812ZM153.131 49.7635H152.283V44.538H153.131V45.3044C153.51 44.7161 154.083 44.4219 154.849 44.4219C155.221 44.4219 155.561 44.5148 155.871 44.7006C156.188 44.8786 156.428 45.1225 156.591 45.4322C156.684 45.2696 156.781 45.1341 156.881 45.0257C157.013 44.8709 157.222 44.7315 157.508 44.6077C157.803 44.4838 158.112 44.4219 158.437 44.4219C159.033 44.4219 159.521 44.6077 159.901 44.9793C160.288 45.3509 160.481 45.8154 160.481 46.3727V49.7635H159.633V46.5934C159.633 46.214 159.506 45.8966 159.25 45.6412C158.995 45.378 158.674 45.2464 158.286 45.2464C157.868 45.2464 157.516 45.378 157.23 45.6412C156.951 45.9121 156.812 46.2373 156.812 46.6166V49.7635H155.952V46.5934C155.952 46.2063 155.825 45.885 155.569 45.6296C155.314 45.3741 154.992 45.2464 154.605 45.2464C154.187 45.2464 153.835 45.378 153.549 45.6412C153.27 45.9121 153.131 46.2373 153.131 46.6166V49.7635ZM162.781 52.3763H161.933V44.538H162.781V45.258C163.276 44.7006 163.907 44.4219 164.674 44.4219C165.409 44.4219 166.021 44.6851 166.509 45.2115C167.004 45.7302 167.252 46.3766 167.252 47.1508C167.252 47.9327 167.004 48.583 166.509 49.1016C166.021 49.6203 165.409 49.8797 164.674 49.8797C163.907 49.8797 163.276 49.601 162.781 49.0436V52.3763ZM165.847 45.8154C165.514 45.4592 165.092 45.2812 164.581 45.2812C164.07 45.2812 163.648 45.4592 163.315 45.8154C162.975 46.1792 162.804 46.6244 162.804 47.1508C162.804 47.6772 162.975 48.1223 163.315 48.4862C163.648 48.8423 164.07 49.0204 164.581 49.0204C165.092 49.0204 165.514 48.8423 165.847 48.4862C166.195 48.1301 166.369 47.6849 166.369 47.1508C166.369 46.6166 166.195 46.1715 165.847 45.8154ZM170.73 44.4219C171.497 44.4219 172.128 44.7006 172.623 45.258V44.538H173.483V49.7635H172.623V49.0436C172.128 49.601 171.497 49.8797 170.73 49.8797C169.995 49.8797 169.38 49.6203 168.884 49.1016C168.396 48.583 168.153 47.9327 168.153 47.1508C168.153 46.3844 168.396 45.7379 168.884 45.2115C169.387 44.6851 170.003 44.4219 170.73 44.4219ZM172.089 45.8154C171.756 45.4592 171.334 45.2812 170.823 45.2812C170.312 45.2812 169.891 45.4592 169.558 45.8154C169.217 46.1792 169.047 46.6244 169.047 47.1508C169.047 47.6772 169.217 48.1223 169.558 48.4862C169.891 48.8423 170.312 49.0204 170.823 49.0204C171.334 49.0204 171.756 48.8423 172.089 48.4862C172.43 48.1223 172.6 47.6772 172.6 47.1508C172.6 46.6244 172.43 46.1792 172.089 45.8154ZM174.929 49.7635V44.538H175.777V45.4089C176.156 44.7509 176.772 44.4219 177.623 44.4219C178.235 44.4219 178.738 44.6193 179.133 45.0141C179.535 45.4089 179.737 45.9044 179.737 46.5005V49.7635H178.877V46.7327C178.877 46.3069 178.734 45.9547 178.448 45.676C178.169 45.3896 177.817 45.2464 177.391 45.2464C176.934 45.2464 176.551 45.3896 176.241 45.676C175.932 45.9624 175.777 46.3186 175.777 46.7443V49.7635H174.929ZM182.133 50.588L182.528 49.6242L180.45 44.538H181.332L182.958 48.5907L184.642 44.538H185.524L182.865 50.8783C182.648 51.397 182.381 51.7764 182.064 52.0163C181.754 52.2563 181.363 52.3763 180.891 52.3763H180.693V51.5518H180.891C181.448 51.5518 181.862 51.2306 182.133 50.588Z" fill="#1E1E1E"/>
</svg>
