<svg width="187" height="53" viewBox="0 0 187 53" fill="none" xmlns="http://www.w3.org/2000/svg">
<path d="M186.601 10.8431L177.313 23.8388H187V27.905H171.453V25.0347L180.781 12.039H171.852V7.9729H186.601V10.8431Z" fill="white"/>
<path d="M160.378 22.4436L165.481 7.9729H170.065L162.411 28.5428C160.498 33.6985 157.255 36.1435 152.684 35.8778V31.8515C154.013 31.9312 155.089 31.6522 155.913 31.0144C156.737 30.3765 157.428 29.3534 157.986 27.9448L158.186 27.5462L149.734 7.9729H154.438L160.378 22.4436Z" fill="white"/>
<path d="M140.351 7.45447C142.664 7.45447 144.511 8.1986 145.893 9.68686C147.301 11.1485 148.005 13.1417 148.005 15.6665V27.9048H143.7V16.105C143.7 14.6167 143.301 13.4739 142.504 12.6767C141.707 11.8794 140.617 11.4807 139.235 11.4807C137.667 11.4807 136.431 11.9724 135.528 12.9557C134.624 13.9125 134.173 15.3343 134.173 17.2212V27.9048H129.867V7.9727H134.173V10.524C135.501 8.47765 137.561 7.45447 140.351 7.45447Z" fill="white"/>
<path d="M120.736 10.8031V7.9727H125.042V27.9048H120.736V25.0345C119.115 27.2935 116.79 28.423 113.76 28.423C111.023 28.423 108.684 27.4131 106.744 25.3933C104.804 23.3735 103.834 20.8887 103.834 17.9387C103.834 14.9888 104.804 12.5039 106.744 10.4841C108.684 8.46436 111.023 7.45447 113.76 7.45447C116.79 7.45447 119.115 8.57066 120.736 10.8031ZM109.933 22.5231C111.129 23.719 112.631 24.317 114.438 24.317C116.245 24.317 117.747 23.719 118.942 22.5231C120.138 21.3006 120.736 19.7725 120.736 17.9387C120.736 16.105 120.138 14.5901 118.942 13.3942C117.747 12.1717 116.245 11.5605 114.438 11.5605C112.631 11.5605 111.129 12.1717 109.933 13.3942C108.737 14.5901 108.139 16.105 108.139 17.9387C108.139 19.7459 108.737 21.274 109.933 22.5231Z" fill="white"/>
<path d="M95.9079 10.9226V7.9727H100.133V26.9879C100.133 30.0176 99.1369 32.343 97.1437 33.9641C95.1771 35.5852 92.7586 36.3958 89.8884 36.3958C85.2908 36.3958 82.1415 34.788 80.4406 31.5723L84.148 29.4196C85.1844 31.466 87.1245 32.4891 89.9681 32.4891C91.8285 32.4891 93.2769 31.9975 94.3133 31.0142C95.3764 30.0574 95.9079 28.7153 95.9079 26.9879V24.5562C94.2868 26.8683 91.9746 28.0244 88.9715 28.0244C86.1811 28.0244 83.8025 27.0277 81.8359 25.0345C79.8958 23.0148 78.9258 20.583 78.9258 17.7394C78.9258 14.8692 79.8958 12.4508 81.8359 10.4841C83.7759 8.46436 86.1545 7.45447 88.9715 7.45447C91.9746 7.45447 94.2868 8.61053 95.9079 10.9226ZM85.025 22.2042C86.2475 23.4001 87.7623 23.9981 89.5695 23.9981C91.3767 23.9981 92.8782 23.4001 94.0741 22.2042C95.2966 21.0083 95.9079 19.52 95.9079 17.7394C95.9079 15.9588 95.2966 14.4706 94.0741 13.2746C92.8782 12.0787 91.3767 11.4807 89.5695 11.4807C87.7623 11.4807 86.2475 12.0787 85.025 13.2746C83.8291 14.4706 83.2311 15.9588 83.2311 17.7394C83.2311 19.52 83.8291 21.0083 85.025 22.2042Z" fill="white"/>
<path d="M76.4077 19.7725H60.5418C60.8607 21.2607 61.5782 22.4168 62.6944 23.2407C63.8372 24.0645 65.2457 24.4764 66.92 24.4764C69.179 24.4764 70.8931 23.6526 72.0625 22.0049L75.6104 24.0778C73.6703 26.9746 70.7603 28.423 66.8801 28.423C63.6644 28.423 61.0467 27.4397 59.0269 25.4731C57.0337 23.4798 56.0371 20.9684 56.0371 17.9387C56.0371 14.9888 57.0204 12.5039 58.9871 10.4841C60.9271 8.46436 63.4518 7.45447 66.5612 7.45447C69.458 7.45447 71.8499 8.47765 73.7368 10.524C75.6237 12.5704 76.5671 15.0552 76.5671 17.9786C76.5671 18.5101 76.514 19.1081 76.4077 19.7725ZM60.5019 16.2644H72.2219C71.9296 14.6965 71.2652 13.4872 70.2287 12.6368C69.2188 11.7864 67.9831 11.3612 66.5214 11.3612C64.9268 11.3612 63.598 11.7997 62.535 12.6767C61.4719 13.5537 60.7942 14.7496 60.5019 16.2644Z" fill="white"/>
<path d="M46.5091 21.726L50.4158 7.9729H54.9603L48.7016 27.905H44.476L40.3302 14.4708L36.1444 27.905H31.9188L25.6602 7.9729H30.2047L34.0715 21.726L38.2572 7.9729H42.3632L46.5091 21.726Z" fill="white"/>
<path d="M25.7124 27.9049H20.7692L18.8159 22.284H6.93636L4.98302 27.9049H0L10.1255 0H15.6267L25.7124 27.9049ZM12.8761 5.38166L8.45119 17.9787H17.301L12.8761 5.38166Z" fill="white"/>
<path d="M5.06439 49.7635H4.07734L7.5262 41.9252H8.26939L11.7183 49.7635H10.7428L9.95318 47.9636H5.85402L5.06439 49.7635ZM9.56997 47.0927L7.90941 43.2723L6.23723 47.0927H9.56997ZM17.0832 49.7635H15.7014V41.9252H17.0832V45.1651H21.1127V41.9252H22.4946V49.7635H21.1127V46.4424H17.0832V49.7635ZM25.1193 50.1816L25.3284 49.6474L23.3078 44.538H24.6084L25.9438 48.0681L27.3141 44.538H28.603L26.1761 50.5996C25.9361 51.2112 25.6264 51.6602 25.2471 51.9467C24.8677 52.2331 24.3916 52.3763 23.8188 52.3763H23.6446V51.1803H23.8188C24.4148 51.1803 24.8484 50.8474 25.1193 50.1816ZM29.2607 49.7635V41.3446H30.5148V44.956C30.9638 44.5767 31.4902 44.387 32.0941 44.387C32.8218 44.387 33.4256 44.6541 33.9056 45.1883C34.3933 45.7147 34.6372 46.3689 34.6372 47.1508C34.6372 47.9404 34.3933 48.5984 33.9056 49.1249C33.4256 49.6513 32.8218 49.9145 32.0941 49.9145C31.4902 49.9145 30.9638 49.7248 30.5148 49.3455V49.7635H29.2607ZM31.9315 45.6412C31.5444 45.6412 31.2154 45.7883 30.9445 46.0824C30.6735 46.3766 30.538 46.7327 30.538 47.1508C30.538 47.5766 30.6735 47.9365 30.9445 48.2307C31.2077 48.5172 31.5367 48.6604 31.9315 48.6604C32.3341 48.6604 32.667 48.5172 32.9302 48.2307C33.2011 47.9365 33.3366 47.5766 33.3366 47.1508C33.3366 46.7327 33.2011 46.3766 32.9302 46.0824C32.6592 45.7883 32.3263 45.6412 31.9315 45.6412ZM36.8086 44.538V45.1767C37.1957 44.6503 37.7182 44.387 38.3763 44.387C38.4614 44.387 38.5156 44.3909 38.5388 44.3987V45.7805C38.3608 45.7108 38.1866 45.676 38.0163 45.676C37.6756 45.676 37.3892 45.7921 37.157 46.0244C36.9247 46.2566 36.8086 46.5431 36.8086 46.8837V49.7635H35.5545V44.538H36.8086ZM40.5168 49.7635H39.2627V44.538H40.5168V49.7635ZM39.1001 42.8774C39.1001 42.6452 39.1737 42.4555 39.3208 42.3084C39.4756 42.1536 39.6653 42.0762 39.8898 42.0762C40.1143 42.0762 40.3039 42.1536 40.4588 42.3084C40.6136 42.4555 40.691 42.6452 40.691 42.8774C40.691 43.1019 40.6136 43.2916 40.4588 43.4464C40.3039 43.5935 40.1143 43.6671 39.8898 43.6671C39.6653 43.6671 39.4756 43.5935 39.3208 43.4464C39.1737 43.2916 39.1001 43.1019 39.1001 42.8774ZM41.4354 47.1508C41.4354 46.3689 41.6792 45.7147 42.167 45.1883C42.6547 44.6541 43.2624 44.387 43.9901 44.387C44.5939 44.387 45.1204 44.5767 45.5694 44.956V41.3446H46.8119V49.7635H45.5694V49.3455C45.1204 49.7248 44.5939 49.9145 43.9901 49.9145C43.2624 49.9145 42.6547 49.6513 42.167 49.1249C41.6792 48.5984 41.4354 47.9404 41.4354 47.1508ZM45.5461 47.1508C45.5461 46.7327 45.4107 46.3766 45.1397 46.0824C44.8688 45.7883 44.5359 45.6412 44.141 45.6412C43.7462 45.6412 43.4133 45.7883 43.1424 46.0824C42.8714 46.3766 42.736 46.7327 42.736 47.1508C42.736 47.5766 42.8714 47.9365 43.1424 48.2307C43.4056 48.5172 43.7385 48.6604 44.141 48.6604C44.5436 48.6604 44.8765 48.5172 45.1397 48.2307C45.4107 47.9365 45.5461 47.5766 45.5461 47.1508ZM51.8753 48.7533C51.1012 47.9791 50.7141 47.0114 50.7141 45.8502C50.7141 44.689 51.1089 43.7174 51.8985 42.9355C52.6804 42.1613 53.6675 41.7743 54.8597 41.7743C55.6725 41.7743 56.4041 41.9678 57.0544 42.3549C57.7124 42.742 58.2079 43.2684 58.5408 43.9342L57.1938 44.4335C56.9615 44.0154 56.6402 43.6903 56.2299 43.4581C55.8196 43.2258 55.3629 43.1097 54.8597 43.1097C54.101 43.1097 53.4585 43.3729 52.932 43.8993C52.4134 44.418 52.154 45.0644 52.154 45.8386C52.154 46.6282 52.4017 47.2824 52.8972 47.8011C53.3927 48.3198 54.0081 48.5791 54.7436 48.5791C55.3164 48.5791 55.839 48.4088 56.3112 48.0681C56.768 47.7353 57.0738 47.294 57.2286 46.7443H54.6042V45.4786H58.7963C58.8117 45.6799 58.8195 45.8076 58.8195 45.8618C58.804 47.023 58.4131 47.9869 57.6466 48.7533C56.8802 49.5274 55.9241 49.9145 54.7784 49.9145C53.6172 49.9145 52.6495 49.5274 51.8753 48.7533ZM61.0992 44.538V45.1767C61.4863 44.6503 62.0089 44.387 62.6669 44.387C62.752 44.387 62.8062 44.3909 62.8295 44.3987V45.7805C62.6514 45.7108 62.4772 45.676 62.3069 45.676C61.9663 45.676 61.6798 45.7921 61.4476 46.0244C61.2153 46.2566 61.0992 46.5431 61.0992 46.8837V49.7635H59.8451V44.538H61.0992ZM65.9725 44.387C66.7621 44.387 67.4202 44.6503 67.9466 45.1767C68.473 45.7031 68.7362 46.3611 68.7362 47.1508C68.7362 47.9404 68.473 48.5984 67.9466 49.1249C67.4202 49.6513 66.7621 49.9145 65.9725 49.9145C65.1751 49.9145 64.5132 49.6513 63.9868 49.1249C63.4604 48.5984 63.1972 47.9404 63.1972 47.1508C63.1972 46.3611 63.4604 45.7031 63.9868 45.1767C64.5132 44.6503 65.1751 44.387 65.9725 44.387ZM65.9725 48.6604C66.3828 48.6604 66.7273 48.5172 67.006 48.2307C67.2847 47.9365 67.424 47.5766 67.424 47.1508C67.424 46.725 67.2847 46.3689 67.006 46.0824C66.7273 45.7883 66.3828 45.6412 65.9725 45.6412C65.5622 45.6412 65.21 45.7883 64.9158 46.0824C64.6371 46.3689 64.4977 46.725 64.4977 47.1508C64.4977 47.5766 64.6371 47.9365 64.9158 48.2307C65.2022 48.5172 65.5545 48.6604 65.9725 48.6604ZM71.7854 49.7635H70.659L68.952 44.538H70.2177L71.2164 47.8243L72.2034 44.538H73.3414L74.3401 47.8243L75.3271 44.538H76.5929L74.8975 49.7635H73.7595L72.784 46.6166L71.7854 49.7635ZM76.811 45.6296V44.538H77.5542V43.5161H78.8083V44.538H80.1553V45.6296H78.8083V47.9288C78.8083 48.1146 78.8702 48.2694 78.9941 48.3933C79.118 48.5094 79.2689 48.5675 79.447 48.5675H80.1553V49.7635H79.3425C78.847 49.7635 78.4212 49.6048 78.0651 49.2874C77.7245 48.97 77.5542 48.5791 77.5542 48.1146V45.6296H76.811ZM80.9945 49.7635V41.3446H82.2486V45.1767C82.6434 44.6503 83.1815 44.387 83.8627 44.387C84.4666 44.387 84.9698 44.5806 85.3723 44.9677C85.7749 45.347 85.9762 45.8347 85.9762 46.4308V49.7635H84.7221V46.7792C84.7221 46.4386 84.6059 46.156 84.3737 45.9315C84.1414 45.6992 83.8473 45.5831 83.4911 45.5831C83.135 45.5831 82.837 45.6992 82.597 45.9315C82.3647 46.156 82.2486 46.4386 82.2486 46.7792V49.7635H80.9945ZM87.2232 47.7198V46.5818H90.3237V47.7198H87.2232ZM91.7145 41.9252H97.451V43.2026H93.0964V45.1651H96.8471V46.4424H93.0964V48.4862H97.509V49.7635H91.7145V41.9252ZM98.4583 49.7635V44.538H99.7125V45.1767C100.1 44.6503 100.622 44.387 101.28 44.387C101.876 44.387 102.368 44.5806 102.755 44.9677C103.15 45.347 103.347 45.8308 103.347 46.4192V49.7635H102.093V46.7792C102.093 46.4386 101.981 46.156 101.756 45.9315C101.532 45.6992 101.249 45.5831 100.909 45.5831C100.576 45.5831 100.293 45.6992 100.061 45.9315C99.8286 46.1637 99.7125 46.4463 99.7125 46.7792V49.7635H98.4583ZM104.26 47.1508C104.26 46.3689 104.504 45.7147 104.991 45.1883C105.479 44.6541 106.087 44.387 106.815 44.387C107.418 44.387 107.945 44.5767 108.394 44.956V44.538H109.636V49.7635H108.394V49.3455C107.945 49.7248 107.418 49.9145 106.815 49.9145C106.087 49.9145 105.479 49.6513 104.991 49.1249C104.504 48.5984 104.26 47.9404 104.26 47.1508ZM108.371 47.1508C108.371 46.7327 108.235 46.3766 107.964 46.0824C107.693 45.7883 107.36 45.6412 106.966 45.6412C106.571 45.6412 106.238 45.7883 105.967 46.0824C105.696 46.3766 105.56 46.7327 105.56 47.1508C105.56 47.5766 105.696 47.9365 105.967 48.2307C106.23 48.5172 106.563 48.6604 106.966 48.6604C107.368 48.6604 107.701 48.5172 107.964 48.2307C108.235 47.9365 108.371 47.5766 108.371 47.1508ZM110.762 49.7635V41.3446H112.017V44.956C112.466 44.5767 112.992 44.387 113.596 44.387C114.324 44.387 114.927 44.6541 115.407 45.1883C115.895 45.7147 116.139 46.3689 116.139 47.1508C116.139 47.9404 115.895 48.5984 115.407 49.1249C114.927 49.6513 114.324 49.9145 113.596 49.9145C112.992 49.9145 112.466 49.7248 112.017 49.3455V49.7635H110.762ZM113.433 45.6412C113.046 45.6412 112.717 45.7883 112.446 46.0824C112.175 46.3766 112.04 46.7327 112.04 47.1508C112.04 47.5766 112.175 47.9365 112.446 48.2307C112.709 48.5172 113.038 48.6604 113.433 48.6604C113.836 48.6604 114.169 48.5172 114.432 48.2307C114.703 47.9365 114.838 47.5766 114.838 47.1508C114.838 46.7327 114.703 46.3766 114.432 46.0824C114.161 45.7883 113.828 45.6412 113.433 45.6412ZM118.31 49.7635H117.056V41.3446H118.31V49.7635ZM120.68 49.7635H119.426V44.538H120.68V49.7635ZM119.264 42.8774C119.264 42.6452 119.337 42.4555 119.484 42.3084C119.639 42.1536 119.829 42.0762 120.053 42.0762C120.278 42.0762 120.468 42.1536 120.622 42.3084C120.777 42.4555 120.855 42.6452 120.855 42.8774C120.855 43.1019 120.777 43.2916 120.622 43.4464C120.468 43.5935 120.278 43.6671 120.053 43.6671C119.829 43.6671 119.639 43.5935 119.484 43.4464C119.337 43.2916 119.264 43.1019 119.264 42.8774ZM121.796 49.7635V44.538H123.051V45.1767C123.438 44.6503 123.96 44.387 124.618 44.387C125.214 44.387 125.706 44.5806 126.093 44.9677C126.488 45.347 126.685 45.8308 126.685 46.4192V49.7635H125.431V46.7792C125.431 46.4386 125.319 46.156 125.094 45.9315C124.87 45.6992 124.587 45.5831 124.247 45.5831C123.914 45.5831 123.631 45.6992 123.399 45.9315C123.167 46.1637 123.051 46.4463 123.051 46.7792V49.7635H121.796ZM127.598 47.1508C127.598 46.3689 127.842 45.7147 128.33 45.1883C128.817 44.6541 129.425 44.387 130.153 44.387C130.756 44.387 131.283 44.5767 131.732 44.956V44.538H132.974V49.9145C132.974 50.65 132.723 51.2693 132.22 51.7725C131.716 52.2757 131.093 52.5273 130.35 52.5273C129.777 52.5273 129.247 52.3763 128.759 52.0744C128.271 51.7647 127.942 51.3815 127.772 50.9248L129.038 50.5764C129.123 50.7777 129.286 50.9441 129.526 51.0757C129.766 51.2151 130.025 51.2848 130.304 51.2848C130.714 51.2848 131.051 51.1532 131.314 50.8899C131.593 50.6345 131.732 50.3132 131.732 49.9261V49.3455C131.283 49.7248 130.756 49.9145 130.153 49.9145C129.425 49.9145 128.817 49.6513 128.33 49.1249C127.842 48.5984 127.598 47.9404 127.598 47.1508ZM131.709 47.1508C131.709 46.7327 131.573 46.3766 131.302 46.0824C131.031 45.7883 130.698 45.6412 130.304 45.6412C129.909 45.6412 129.576 45.7883 129.305 46.0824C129.034 46.3766 128.899 46.7327 128.899 47.1508C128.899 47.5766 129.034 47.9365 129.305 48.2307C129.568 48.5172 129.901 48.6604 130.304 48.6604C130.706 48.6604 131.039 48.5172 131.302 48.2307C131.573 47.9365 131.709 47.5766 131.709 47.1508ZM141.227 41.8091C141.986 41.8091 142.675 41.991 143.294 42.3549C143.913 42.711 144.397 43.2026 144.745 43.8296L143.84 44.1664C143.561 43.7174 143.193 43.3652 142.737 43.1097C142.28 42.8465 141.777 42.7149 141.227 42.7149C140.352 42.7149 139.621 43.0168 139.032 43.6206C138.444 44.209 138.15 44.9522 138.15 45.8502C138.15 46.7482 138.444 47.4914 139.032 48.0798C139.628 48.6759 140.36 48.9739 141.227 48.9739C141.777 48.9739 142.28 48.8462 142.737 48.5907C143.193 48.3275 143.561 47.9714 143.84 47.5224L144.745 47.8591C144.397 48.4862 143.913 48.9817 143.294 49.3455C142.675 49.7094 141.986 49.8913 141.227 49.8913C140.073 49.8913 139.11 49.5081 138.335 48.7417C137.569 47.9675 137.186 47.0037 137.186 45.8502C137.186 44.6967 137.569 43.7368 138.335 42.9703C139.11 42.1962 140.073 41.8091 141.227 41.8091ZM148.371 49.8797C147.589 49.8797 146.939 49.6203 146.42 49.1016C145.902 48.583 145.642 47.9327 145.642 47.1508C145.642 46.3689 145.902 45.7186 146.42 45.1999C146.939 44.6812 147.589 44.4219 148.371 44.4219C149.145 44.4219 149.792 44.6812 150.31 45.1999C150.837 45.7263 151.1 46.3766 151.1 47.1508C151.1 47.9249 150.837 48.5752 150.31 49.1016C149.792 49.6203 149.145 49.8797 148.371 49.8797ZM148.371 45.2812C147.845 45.2812 147.407 45.4592 147.059 45.8154C146.711 46.1715 146.536 46.6166 146.536 47.1508C146.536 47.6849 146.711 48.1301 147.059 48.4862C147.407 48.8423 147.845 49.0204 148.371 49.0204C148.898 49.0204 149.335 48.8423 149.683 48.4862C150.032 48.1301 150.206 47.6849 150.206 47.1508C150.206 46.6166 150.032 46.1715 149.683 45.8154C149.335 45.4592 148.898 45.2812 148.371 45.2812ZM153.131 49.7635H152.283V44.538H153.131V45.3044C153.51 44.7161 154.083 44.4219 154.849 44.4219C155.221 44.4219 155.561 44.5148 155.871 44.7006C156.188 44.8786 156.428 45.1225 156.591 45.4322C156.684 45.2696 156.781 45.1341 156.881 45.0257C157.013 44.8709 157.222 44.7315 157.508 44.6077C157.803 44.4838 158.112 44.4219 158.437 44.4219C159.033 44.4219 159.521 44.6077 159.901 44.9793C160.288 45.3509 160.481 45.8154 160.481 46.3727V49.7635H159.633V46.5934C159.633 46.214 159.506 45.8966 159.25 45.6412C158.995 45.378 158.673 45.2464 158.286 45.2464C157.868 45.2464 157.516 45.378 157.23 45.6412C156.951 45.9121 156.812 46.2373 156.812 46.6166V49.7635H155.952V46.5934C155.952 46.2063 155.825 45.885 155.569 45.6296C155.314 45.3741 154.992 45.2464 154.605 45.2464C154.187 45.2464 153.835 45.378 153.549 45.6412C153.27 45.9121 153.131 46.2373 153.131 46.6166V49.7635ZM162.781 52.3763H161.933V44.538H162.781V45.258C163.276 44.7006 163.907 44.4219 164.674 44.4219C165.409 44.4219 166.021 44.6851 166.509 45.2115C167.004 45.7302 167.252 46.3766 167.252 47.1508C167.252 47.9327 167.004 48.583 166.509 49.1016C166.021 49.6203 165.409 49.8797 164.674 49.8797C163.907 49.8797 163.276 49.601 162.781 49.0436V52.3763ZM165.847 45.8154C165.514 45.4592 165.092 45.2812 164.581 45.2812C164.07 45.2812 163.648 45.4592 163.315 45.8154C162.975 46.1792 162.804 46.6244 162.804 47.1508C162.804 47.6772 162.975 48.1223 163.315 48.4862C163.648 48.8423 164.07 49.0204 164.581 49.0204C165.092 49.0204 165.514 48.8423 165.847 48.4862C166.195 48.1301 166.369 47.6849 166.369 47.1508C166.369 46.6166 166.195 46.1715 165.847 45.8154ZM170.73 44.4219C171.497 44.4219 172.128 44.7006 172.623 45.258V44.538H173.483V49.7635H172.623V49.0436C172.128 49.601 171.497 49.8797 170.73 49.8797C169.995 49.8797 169.38 49.6203 168.884 49.1016C168.396 48.583 168.153 47.9327 168.153 47.1508C168.153 46.3844 168.396 45.7379 168.884 45.2115C169.387 44.6851 170.003 44.4219 170.73 44.4219ZM172.089 45.8154C171.756 45.4592 171.334 45.2812 170.823 45.2812C170.312 45.2812 169.891 45.4592 169.558 45.8154C169.217 46.1792 169.047 46.6244 169.047 47.1508C169.047 47.6772 169.217 48.1223 169.558 48.4862C169.891 48.8423 170.312 49.0204 170.823 49.0204C171.334 49.0204 171.756 48.8423 172.089 48.4862C172.43 48.1223 172.6 47.6772 172.6 47.1508C172.6 46.6244 172.43 46.1792 172.089 45.8154ZM174.929 49.7635V44.538H175.777V45.4089C176.156 44.7509 176.772 44.4219 177.623 44.4219C178.235 44.4219 178.738 44.6193 179.133 45.0141C179.535 45.4089 179.737 45.9044 179.737 46.5005V49.7635H178.877V46.7327C178.877 46.3069 178.734 45.9547 178.448 45.676C178.169 45.3896 177.817 45.2464 177.391 45.2464C176.934 45.2464 176.551 45.3896 176.241 45.676C175.932 45.9624 175.777 46.3186 175.777 46.7443V49.7635H174.929ZM182.133 50.588L182.528 49.6242L180.45 44.538H181.332L182.958 48.5907L184.642 44.538H185.524L182.865 50.8783C182.648 51.397 182.381 51.7764 182.064 52.0163C181.754 52.2563 181.363 52.3763 180.891 52.3763H180.693V51.5518H180.891C181.448 51.5518 181.862 51.2306 182.133 50.588Z" fill="white"/>
</svg>
